<svg xmlns="http://www.w3.org/2000/svg" viewBox="0 0 630.48 132.42"><defs><style>.cls-1{fill:#e42313;}</style></defs><g id="Layer_2" data-name="Layer 2"><g id="Layer_1-2" data-name="Layer 1"><path d="M5.57,5.48h5.2v26c0,8.87,5.2,12.49,12,12.49S34.66,40.27,34.66,31.9V5.48h5.2V31.65c0,11-7.73,16.86-17.18,16.86s-17.11-4.44-17.11-16Z"/><path d="M58.05,5.48h5.19L87.89,40V5.48H93V47.75H87.77l-24.65-34v34H58.05Z"/><path d="M111.72,5.48h5.2V47.75h-5.2V5.48Z"/><path d="M130.36,5.48h5.51l12.36,34.91L160.58,5.48h5.33L150.63,48.06h-5.06Z"/><path d="M179.34,5.48h24.91V9.85H184.54V24h15.59v4.37H184.54v15h19.64v4.38H179.34Z"/><path d="M220,5.48h11.09C242,5.48,246.2,11.05,246.2,17c0,6.15-4.56,10-8.74,11.85l12.8,18.89h-6.15L232,29.94h-6.78V47.75H220Zm11.85,20.09c4.06,0,8.74-2.79,8.74-8,0-4-2.72-7.67-10.45-7.67h-4.94V25.57Z"/><path d="M262.24,40.08a20,20,0,0,0,11,3.8c4.57,0,8.43-2.09,8.43-6.15,0-9.63-20.09-9.06-20.09-22,0-6.14,4.95-11,13.75-11a35.63,35.63,0,0,1,10.78,1.9L284.8,11.5a26.28,26.28,0,0,0-9.64-2.16c-4.69,0-8.3,2-8.3,5.83C266.86,25,287,23.92,287,37.35c0,7.35-6.27,11.16-13.88,11.16A22.37,22.37,0,0,1,260.84,45Z"/><path d="M302.6,5.48h5.2V47.75h-5.2V5.48Z"/><path d="M336.38,9.85H321.43V5.48h35.36V9.85H341.58v37.9h-5.2Z"/><path d="M379.86,29.37,364.71,5.48h6.15L382.52,24.3,394.3,5.48h5.83L385.05,29.3V47.75h-5.19Z"/><path d="M18,76.68H0V67.83H46.44v8.85H28.5v45.79H18Z"/><path d="M72.81,67.42H82.89l20.56,55.05H92.72l-4.43-12.29H67.16l-4.42,12.29H52.25Zm-2.54,34H85.1L77.73,80.77Z"/><path d="M118.27,109.52s5.9,4.92,13.51,4.76c4.59,0,8.6-2,8.6-5.82,0-9.83-24.32-9.5-24.32-26,0-8.35,6.88-15.64,18.84-15.64a52.2,52.2,0,0,1,14.82,2.46L148,78.81A37.08,37.08,0,0,0,135.06,76c-4.67,0-8.35,1.89-8.35,5.41,0,9.91,24.24,9,24.24,26.21,0,9.91-8.52,15.81-19,15.81a32.3,32.3,0,0,1-16.71-4.59Z"/><path d="M170.28,67.83h15.15l13.19,37.93L211.8,67.83h14.91l2,54.64H218.44l-1.56-42.76-15.15,42.76h-6.88l-15-42.68-1.39,42.68H168.31Z"/><path d="M263.65,67.42h10.07l20.56,55.05H283.55l-4.42-12.29H258l-4.42,12.29H243.09Zm-2.54,34h14.82l-7.37-20.65Z"/><path d="M309.67,67.83h10.65l26.62,38.5V67.83h10.32v54.64H346.53L320,84.21v38.26H309.67Z"/><path d="M379,67.83h10.57v54.64H379V67.83Z"/><path d="M425.57,67.42h10.07l20.56,55.05H445.47l-4.42-12.29H419.92l-4.43,12.29H405Zm-2.54,34h14.82l-7.37-20.65Z"/><path d="M423.94,17.37c5.9,0,8.81,4.64,8.81,9.37,0,6-4.79,14.77-13,14.77-5.9,0-8.76-4.63-8.76-9.73C411,24.76,416.45,17.37,423.94,17.37ZM420.07,38.2c5.35,0,8.6-6.11,8.6-11.3,0-3.52-1.47-6.22-4.94-6.22-4.68,0-8.65,4.74-8.65,11C415.08,35.45,416.56,38.2,420.07,38.2Z"/><path d="M437.43,19.1,441,17.78l.15-1.12c.77-6,3.26-12.83,10.75-12.83a10.77,10.77,0,0,1,5.65,1.37l-1.73,3.06a8.81,8.81,0,0,0-3.92-1.07c-5.1,0-6.32,5.3-7.18,10.79h6.16l-.72,3.21h-5.9c-1.53,12.38-3.21,29.08-12.43,31.78l-1.58-2.7c5.71-1.94,8.1-12,9.32-21.34l1-7.74h-3.11Z"/><path class="cls-1" d="M522.94,16.39c-.74,0-2.31.13-3.32.15a4.81,4.81,0,0,1-1.85-.39.42.42,0,0,0-.55.41l-.06,2.21a1.05,1.05,0,0,0,.85,1c1.72.4,3.76.16,6.51-2.7.49-.52-1-.66-1.58-.64"/><path class="cls-1" d="M630.42,30a.15.15,0,0,0,0-.21c-4.66-4.95-25.48-2.46-33.55-1.55-10,1.13-18.21,2.24-20.69,2.37-2.71.14-8.25.52-11.44-1-3.63-1.77-4.66-3.09-4.94-4.89-.82-5.26,3.78-5.39,5.23-5.41s3.5,0,3.35,2.05c-.09,1.37-1.27,2-2.46,2.59a.14.14,0,0,0,0,.23c.67.57,3.26,2.6,6.2,2.39,3.41-.25,5.73-.92,7.25-6.55a.12.12,0,0,1,.16-.09A105.16,105.16,0,0,0,591,23.67c3.08.67,7.78.77,11-1.11s7.85-4.69,13.09-4.42c4.59.24,9.88.33,13,2.12a.12.12,0,0,0,.18-.15c-.63-2.1-4.83-13.72-18.79-10.49h0c-3.51,1-4,1.83-6.8,2.34a36,36,0,0,1-15.06-.72.15.15,0,0,1,0-.27c1.8-1,11.12-5.76,21.37-4a.14.14,0,0,0,.13-.22c-1-1.33-5.63-7-13.3-6.73C587,.34,585,2.29,579.47,5.23c-5.11,2.74-7.28,4.47-16,4-5.42-.29-11.23,4-12.37,7.35-5.09,14.85,6,20.73,15.6,22.25,9,1.42,40.21-5,47.6-1.63,3.4,1.53,5.38,4.71,5.25,7.44-.07,1.28-1.54,3.51-5.79,4.44a56.84,56.84,0,0,1-22-.57h0c-.18-.1-7.64-4.27-13.37-4.63C574,43.61,563.05,46,559.62,46c-2.42.05-7.06.32-9.57.48.12-11.21-6-20.39-6.27-20.89a1.24,1.24,0,0,0-1.81-.37s-.8.37-2.27,1.1c1.62-3.18,1.25-7.29-.28-8.9a.25.25,0,0,1,0-.34,6.67,6.67,0,0,0,1.39-3.49c.08-2.63-.45-5.94-6.63-9.3a.74.74,0,0,0-1.06.38c-.52,1.27-1.64,3.65-2.71,3.73-2.33.19-9.34,1.72-11.12,2.66a13.8,13.8,0,0,0-5,4.09,6.19,6.19,0,0,1-4.19,2.9c-1.8.4-2.53.05-3.06.6a2.21,2.21,0,0,0-.68,2.2,33.41,33.41,0,0,0,2.42,5.35,9.61,9.61,0,0,0,2.49,2.94l-2.36,0c-.66,0-2.07-.14-2.09-.14a.72.72,0,0,0-.71.4.84.84,0,0,0,.08.85c.66.84,1.53,1.66,4.3,1.66h.27L513,32c-.33.4-.67.83-.85,1.07a3.83,3.83,0,0,0-.66,4.42,6.37,6.37,0,0,0,2.19,2.71c1.61-1.14,5.08-2.67,6.52-1.64l-.84.92c-2.92,3.19-6.76,7.19-8.93,12.21-2.65-1-9.18-3.55-12.22-6.5a6,6,0,0,1-1.17-5.25,7.33,7.33,0,0,0-.31-5.93c-1.09-2.44-4.31-4.84-4.31-4.84.42-2.91,1-6.78,1.21-7.95,2.69.27,5.29-.42,6.15-1.73s1.13-3.89,1.57-4.49,1.37-.37,1.91-.42A6.27,6.27,0,0,0,507.44,13c1.63-1.49,2.8-3.61,4.2-3.81a7.22,7.22,0,0,0,4.09-1.74c1.19-1,3.72-4.05,8.31-3.95,1.27,0,2-1.3-.4-1.81a16.7,16.7,0,0,0-8.71.65c-2.61,1-3.65.1-4.76-.24-1.72-.51-3.4-.35-5.91.61-2.08.81-5.85,1.33-8,.63a15.69,15.69,0,0,0-9.69-.5c-3.51.84-5.92,2.77-7.05,5.69a7.06,7.06,0,0,0,0,5.31,9.32,9.32,0,0,0,.88,1.54c-.11,2.3-.43,9.89-.45,10.77a5.79,5.79,0,0,0-.74,2,3.41,3.41,0,0,0-.06,1.1h-.4a3.83,3.83,0,0,0-2.34,1.14l-.25.25-.21.29a4.14,4.14,0,0,0-.36.6l-.28.62a5.1,5.1,0,0,0-.21.75,4.12,4.12,0,0,0,0,1.64,4.74,4.74,0,0,0,.56,1.37,6,6,0,0,0,1.37,1.51,4.11,4.11,0,0,0-.57.72,4.61,4.61,0,0,0-.73,2.13,4.07,4.07,0,0,0,.59,2.33A5.56,5.56,0,0,0,477.61,44,11.2,11.2,0,0,0,479,45c-1.11,31.27-1.2,32.54,2.05,33.54a1.17,1.17,0,0,0,.37,0c3.78,0,4.82-8.42,7-23,.32-2.11.55-4,.81-5.62,2.69,5,8.79,15.42,17.65,23.48a.85.85,0,0,0,1.39-.47c1-4.08,1.71-5.49,2.1-6.15A29.24,29.24,0,0,0,512.8,71a33.68,33.68,0,0,0,4.51,5l0,0c-2.68,2.57-9.37,8.46-16.25,10.55a.12.12,0,0,1-.15-.07A16.11,16.11,0,0,0,498,81.9c-1.65-1.55-3.05-3.17-9.42-1.84A22.61,22.61,0,0,0,485,81.23a.81.81,0,0,0,.25,1.54,10.43,10.43,0,0,1,1.82.2.12.12,0,0,1,.08.14,4.08,4.08,0,0,0,.51,2.69.14.14,0,0,1,0,.18c-.73.53-5.13,4-4.31,11.22a.44.44,0,0,0,.86.12,19.51,19.51,0,0,1,.74-2c.36.65,2,3.29,4.54,3.67a.13.13,0,0,1,.1.15,12.13,12.13,0,0,0,2.65,8.79.61.61,0,0,0,1.07-.47,8,8,0,0,1,0-1.55.13.13,0,0,1,.2-.1,2.83,2.83,0,0,0,3.26-.19,17,17,0,0,0,4.73-5.2.13.13,0,0,1,.21,0c1.16,1.48,3,1.6,5.06,1.6,3.5,0,6.39-1.85,6.39-5.3,0-.08,0-.16,0-.25,7.85.79,12.65-1.05,18.74-4.92,5.59-3.55,8.43-6,8-9.17a6.49,6.49,0,0,0-1.8-3.87,19.52,19.52,0,0,0,16.44-9.61c.08-.14.27,0,.23.11-.61,2.7-.67,7.75.78,10.45,2.16,4,7.4,10.06,8.17,12.59s.7,8.91-2.13,12.42-3.52,4-5.6,5.32a.11.11,0,0,1-.14,0c-.54-.47-4.27-3.73-8-4.34s-15.73-3.3-16.33,9.67a.61.61,0,0,0,1.09.46,8.6,8.6,0,0,1,2.58-2.5.1.1,0,0,1,.09,0,13.45,13.45,0,0,0,2.32,1,.12.12,0,0,1,.07.21c-2,2.65-3.85,6.76-.14,11.42a.53.53,0,0,0,.93-.4,12,12,0,0,1,0-2.39.14.14,0,0,1,.25-.06c1.36,2,4.53,2.68,7.49,1.39a.12.12,0,0,1,.17.1c.12.78.9,4.16,6,7.95a.65.65,0,0,0,1-.79,7.3,7.3,0,0,1-.58-2.6.11.11,0,0,1,.12-.11A6.84,6.84,0,0,0,559,125a28,28,0,0,0,1.7-5.25.12.12,0,0,1,.06-.08l4.46-2.89a.13.13,0,0,1,.19.07c.34.83.71,1.75,1.47,2a.13.13,0,0,1,.1.16,25,25,0,0,1-1,3.11.45.45,0,0,0,.66.58c2.93-2.14,8.8-7.57,6.09-13.43,9.53-7.5,15.38-16.73,16.33-22.28a1.31,1.31,0,0,0-1.22-1.55c-6.1-.19-9.37-1.83-8.92-7.36a.13.13,0,0,1,.16-.13c1.55.43,15.24,4.06,24.41,1.43a1.23,1.23,0,0,1,1.42.67,50.3,50.3,0,0,1,3.64,8.61c.76,3.15.16,4.82.11,4.93h0c-.53.74-1.52,1.46-4.12,3.14-6.53,4.23-5.87,9.56.11,15.67a.41.41,0,0,0,.67-.42,21.88,21.88,0,0,1-.79-3.65.13.13,0,0,1,.16-.13,2.92,2.92,0,0,0,2-.35.13.13,0,0,1,.18.11c.1.79.8,4,5.36,6.13a.3.3,0,0,0,.39-.39,19.71,19.71,0,0,1-1-3.29.13.13,0,0,1,.14-.15c1,0,4.69,0,5.52-4.87a.12.12,0,0,1,.16-.1c.88.32,5.83,1.93,8.83-2a.25.25,0,0,0-.23-.4,6.4,6.4,0,0,1-2.89.19.13.13,0,0,1-.05-.2c.47-.82,2.75-5.45-2.88-10.45a.16.16,0,0,1,0-.16c3.67-11.44,2.94-24-1.21-31.52a1.34,1.34,0,0,0-1.63-.66c-7.1,2.56-18.74,3.64-20.16-2.73a.15.15,0,0,1,.15-.18,39.22,39.22,0,0,0,9.92.4,59,59,0,0,0,11.18-2c4.16-1.29,7.56-2.91,9.2-7.2a15.76,15.76,0,0,0-2.33-13.68.13.13,0,0,1,0-.19ZM483.47,18.08a20.16,20.16,0,0,0,6.92,2.57s-.8,6.52-.91,6.46c-.33-.2-.66-.37-1-.55a26.05,26.05,0,0,0-2.72-1.27,8.11,8.11,0,0,0-1.6-.47,5.37,5.37,0,0,0-1-.08Zm-1-7.93c.82-3.45,4.22-4.32,5.5-4.66A13.17,13.17,0,0,1,496,5.9c2.36.86,6.07.22,8-.54s3.48-1.17,4.51-.8a9.59,9.59,0,0,0,3.31.59,17.88,17.88,0,0,0,3.87-.69s-2.43,2-4,2c-2.42-.09-4.12,2.42-4.82,3.71s-2,2.07-4.9,2.15c-3.83.1-4,3.12-4.37,4.4s-1.6,2-4.32,1.66A19.36,19.36,0,0,1,485.53,16c-2.51-1.26-3.65-3.55-3.1-5.87m-4.69,22.71c.57-1.84,2.84-1.32,4.12-1a.35.35,0,0,0,.38-.51,3.25,3.25,0,0,1-.18-2.93c.93-1.43,3.7.07,5,.7s4.21,2.17,3.55,3.86a2.29,2.29,0,0,1-2,1.45.37.37,0,0,0-.2.61c.71.8,1.83,2.25,1.35,3.46s-2.37,1.09-3.53,1a.37.37,0,0,0-.29.62c.68.76,1.56,2.05,1.2,3.35-.54,2-3.62.56-5.24-.15s-3.59-2.05-3.3-3.51c.19-.94,1.38-1.53,2.2-1.83a.37.37,0,0,0,.07-.65c-1.24-.81-3.66-2.66-3.1-4.43m4,41.72c-.58,0-.49-4.34-.28-11,.23-7.14.71-15.45.77-17.2a18.89,18.89,0,0,0,2.27.74,6.35,6.35,0,0,0,1.69.18,1.31,1.31,0,0,0,.33,0c-.35,1.9-.68,4.5-1.13,7.53-.33,2.23-.86,5.65-1.35,9-.8,5.48-1.81,10.76-2.3,10.74m32.93-5.53a19.55,19.55,0,0,1-2.51-4.73c-.19-.55-.45-1.48-.65-2.28a.39.39,0,0,0-.65-.2,11.5,11.5,0,0,0-2.29,3.07,1.59,1.59,0,0,0-.09.2,19,19,0,0,0-1.68,4.26,30.74,30.74,0,0,1-3.91-3.92c0-.21.05-.43.09-.65.06-.4.13-.81.22-1.21a23.69,23.69,0,0,1,.64-2.44h0a.49.49,0,0,0-.11-.5.45.45,0,0,0-.64,0,15.64,15.64,0,0,0-1.64,2.13c-.11.17-.21.36-.31.54-.72-.92-1.44-1.88-2.15-2.86,0-.17,0-.34.06-.51,0-.38.1-.75.17-1.12.14-.75.34-1.51.56-2.29h0a.5.5,0,0,0-.11-.48.43.43,0,0,0-.64,0,14.34,14.34,0,0,0-1.56,2l-.09.16c-3.92-5.75-7.23-11.58-8.17-13.27l.15-.48a3.69,3.69,0,0,0-.08-2.17,2,2,0,0,0-.09-.22,2.76,2.76,0,0,0,.67-.14,3.3,3.3,0,0,0,1.5-1.11,4.26,4.26,0,0,0,.74-1.63,4.05,4.05,0,0,0,0-1.9,3.48,3.48,0,0,0-.68-1.42,3.48,3.48,0,0,0,1.25-1.45,3.33,3.33,0,0,0,.21-.48c0-.15.11-.31.16-.5A4.28,4.28,0,0,1,494.31,35c1,2.06-.17,5.44-.32,6.72A6.73,6.73,0,0,0,495.33,46c.87,1.19,8.52,5.63,15.65,8.61l1.06.46c1.63-5.6,6-10.25,9.2-13.74.73-.8,1.42-1.56,2-2.26l.74-.91-1-1a5.24,5.24,0,0,0-3.84-1.9,18.92,18.92,0,0,0-4.63,1.21c-1.47-1.61.8-3.6,1.84-4.58,1.26,0,3-.14,3.73-.19l1.13-.06a.63.63,0,0,0,.49-1,15.63,15.63,0,0,0-1.37-2.24c-.74-.9-2.53-.12-5.43-.45-4.16-.47-5.84-7.48-5.84-7.48A8.12,8.12,0,0,0,514,19.29c1.79-1.12,2.64-3.68,4.79-5.18s7-1.94,10.6-2.19c3.39-.23,4.2-2.5,5-4.15a.34.34,0,0,1,.48-.15c4.25,2.75,3.61,6.45,2.48,8a13.64,13.64,0,0,1-.94,1.2.25.25,0,0,0,.07.38,2.88,2.88,0,0,1,1.47,2,7.69,7.69,0,0,1-.27,5.54,6.91,6.91,0,0,1-4.08,3.07c-.24.1-.58.24-1,.41a1.13,1.13,0,0,0,.33,2.14h0a6.08,6.08,0,0,0,1,0v0a15.13,15.13,0,0,0,8.22-2.15,44,44,0,0,1,4.62,12.53,13,13,0,0,0-1.34-1.14,14.62,14.62,0,0,0-3.2-1.78,14.92,14.92,0,0,0-3.42-.91.72.72,0,0,0-.77.46.79.79,0,0,0,.39,1h0a25.56,25.56,0,0,1,2.91,1.47A16.49,16.49,0,0,1,544,41.76a13.6,13.6,0,0,1,2.1,2.32,13.22,13.22,0,0,1,.87,1.33l.36.72,0,.06a24.34,24.34,0,0,1-1.59,9.07c0,.15-.12.3-.19.46-.09-.3-.19-.6-.3-.89a16.69,16.69,0,0,0-2.13-4,12.3,12.3,0,0,0-3.29-3.11,11.62,11.62,0,0,0-4-1.6.73.73,0,0,0-.8.46.8.8,0,0,0,.39,1h0a13.62,13.62,0,0,1,3.27,2,11.64,11.64,0,0,1,2.46,2.82,16,16,0,0,1,1.63,3.5,16.85,16.85,0,0,1,.56,1.91c.08.32.17.65.23,1a1.1,1.1,0,0,0,.16.37,41.8,41.8,0,0,1-4.86,6l-.12-.77c-.06-.41-.14-.81-.23-1.22a18.6,18.6,0,0,0-1.71-4.69,13.63,13.63,0,0,0-3.08-3.89,13,13,0,0,0-4.1-2.4.72.72,0,0,0-.86.35.8.8,0,0,0,.26,1h0a15.3,15.3,0,0,1,3.3,2.65,13.23,13.23,0,0,1,2.29,3.47,18.11,18.11,0,0,1,1.28,4.08,10.18,10.18,0,0,1,.19,1.08c.06.36.12.73.15,1.1s.08.73.1,1.1a1.11,1.11,0,0,0,.12.43,48.66,48.66,0,0,1-5.1,4.07,1.32,1.32,0,0,1-.25-.16c-.31-.18-.59-.4-.88-.59s-.58-.41-.86-.63-.56-.43-.82-.66a16.78,16.78,0,0,1-2.89-3,12.45,12.45,0,0,1-1.91-3.69,13.79,13.79,0,0,1-.62-4.29h0a.76.76,0,0,0-.58-.74.72.72,0,0,0-.86.59,14.09,14.09,0,0,0-.06,5,13.91,13.91,0,0,0,1.79,4.77,19,19,0,0,0,3.1,3.87c.29.29.59.55.89.82s.55.47.82.69a32.63,32.63,0,0,1-6.41,2.83l-.32-.26c-.83-.66-1.6-1.32-2.33-2a30.72,30.72,0,0,1-4.52-5m71.16,19a35.26,35.26,0,0,1-3.94,7.5l0,0a9.68,9.68,0,0,0-1.39-1.8,12.55,12.55,0,0,0-3.43-2.51.66.66,0,0,0-.83.21.76.76,0,0,0,.12,1l0,0a13.06,13.06,0,0,1,1.3,1.28,10.74,10.74,0,0,1,1.08,1.48,7.72,7.72,0,0,1,.74,1.57,6.31,6.31,0,0,1,.3,1.56c-.91,1.15-1.87,2.24-2.83,3.27-.07-.13-.13-.27-.2-.39a10,10,0,0,0-1.33-1.88,13,13,0,0,0-1.58-1.49,12.16,12.16,0,0,0-1.78-1.17.65.65,0,0,0-.82.17.74.74,0,0,0,.06,1l0,0a12.4,12.4,0,0,1,1.22,1.37,11.07,11.07,0,0,1,1,1.54,7.49,7.49,0,0,1,.62,1.62,5.74,5.74,0,0,1,.18,1.57h0l0,.19c-1.54,1.47-3.06,2.78-4.43,3.9a.13.13,0,0,0,0,.15c1.92,5.27-1.35,10.18-3,5.42-.38-1.08-.74-.9-1.45-.34s-6.69,4.68-7.41,5.18a.13.13,0,0,0-.06.14c.71,4-3.19,7.52-5.81,7.27-2.17-.21-3.29-2.84-2.75-6.31a.49.49,0,0,0-.78-.49c-2.29,1.95-6.53,4.39-9.23.5-1.27-1.84,1.18-4.86,2.55-6.3a.57.57,0,0,0-.31-.95c-2.09-.3-6.17-1.18-4.52-3.27,1.53-1.94,4.45-1.64,6.61-1.47a17,17,0,0,1,11.71,5.62.12.12,0,0,0,.16,0,34.22,34.22,0,0,0,6.33-4.79c1.94-2.22,4.8-3.9,5-14.28.09-4.92-4.29-8.93-6.9-12.8S556,74.31,557.81,68a.14.14,0,0,1,.12-.11c.33,0,1.66-.05,5.8-.12a.12.12,0,0,1,.1,0,34,34,0,0,0,11.94,8.8.14.14,0,0,1,.09.14c-.12,1.15-.85,11.26,10,11.26m11.79-24.76c4.16,2.69,12,2.33,19.48.06a.13.13,0,0,1,.16.07,33.11,33.11,0,0,1,2.26,7.43,17.4,17.4,0,0,0-2.22-1.07,14.81,14.81,0,0,0-2.4-.75,13.81,13.81,0,0,0-2.47-.32.46.46,0,0,0-.45.34.49.49,0,0,0,.3.59h0a13.28,13.28,0,0,1,2.15.83,13.53,13.53,0,0,1,2,1.13A17.56,17.56,0,0,1,618.31,73c.58.49,1.14,1.08,1.68,1.47h0a39.16,39.16,0,0,1,.1,4.48c-.2-.13-.41-.24-.61-.36a20.11,20.11,0,0,0-2.29-1.11,15.87,15.87,0,0,0-2.4-.75,12.94,12.94,0,0,0-2.47-.31.44.44,0,0,0-.45.33.49.49,0,0,0,.3.59h0a15.79,15.79,0,0,1,4.15,2,19.09,19.09,0,0,1,1.84,1.37c.56.48,1.11,1,1.64,1.44a49.23,49.23,0,0,1-2.33,10.21h0l-.38.89c4.7,2.51,5.81,9,2.19,9.67a3.85,3.85,0,0,1-2.93-.61.42.42,0,0,0-.69.25c-.39,1.86-1.67,5.51-4.26,5.51-2.15,0-2.81-1.67-2.85-3.26a.5.5,0,0,0-.89-.34c-1.31,1.63-2.62,2.24-3.72,1.5a2.83,2.83,0,0,1-1.12-3.59c1.56-3.3,6.24-4.54,8.12-7,0,0,0,0,0,0,2.31-4.1-1.5-12.41-4.29-18.33a1.34,1.34,0,0,0-1.6-.75,39.17,39.17,0,0,1-17.86.72c-11.28-2.19-17.46-6.38-21.23-11.19a.27.27,0,0,1-.07-.08c-.25-.32-.48-.64-.71-1l0,0c-1-1.45-1.64-2.52-2.23-3.37a.71.71,0,0,0-.45-.31c-1.12-.2-.45,2.85-.34,3.73a.13.13,0,0,1-.1.16c-2.27.47-4.92.11-7.86.24a.17.17,0,0,0-.1.06c-4.28,5.38-5.74,9.18-17.94,11.4-1.7.31-1.57,1.41-.83,2a7,7,0,0,1,2,4.18c.12.9-.62,2.06-4.41,4.67-.09-.23-.18-.45-.29-.67a9.1,9.1,0,0,0-1.29-1.94,10.31,10.31,0,0,0-1.61-1.5,9.31,9.31,0,0,0-1.87-1.08.67.67,0,0,0-.81.24.76.76,0,0,0,.15,1l.06,0a9.26,9.26,0,0,1,1.27,1.24,8.18,8.18,0,0,1,1,1.47,6.34,6.34,0,0,1,.58,1.59,5.56,5.56,0,0,1,.15,1.34,44.15,44.15,0,0,1-4.54,2.52,9.39,9.39,0,0,0-.35-1.06,9,9,0,0,0-1.13-2A10.13,10.13,0,0,0,522.7,87a9.75,9.75,0,0,0-1.78-1.24.67.67,0,0,0-.82.17.77.77,0,0,0,.06,1l.06,0a9,9,0,0,1,1.17,1.34,7.89,7.89,0,0,1,.86,1.55,6.24,6.24,0,0,1,.46,1.63,5.72,5.72,0,0,1,0,1.43c-5.63,2-9.06,1.09-10.89,0h0a10.32,10.32,0,0,0-1.28-.86,1,1,0,0,0-1.35.35,1.17,1.17,0,0,0,0,1.34,14.52,14.52,0,0,1,.82,1.23,3.36,3.36,0,0,1,.49,1.72c0,1.93-1.73,2.55-3.8,2.55s-3.7-.62-3.7-2.55v-1a.82.82,0,0,0-.94-.86,1.51,1.51,0,0,0-1,.74l-.64,1.12v0c-.09.22-3.43,7.66-6.84,6-2.25-1.12-1.24-3.82,0-5.84a.67.67,0,0,0-.78-1,3.88,3.88,0,0,1-3.33,0c-2.11-1.17-2.8-3.53-2.06-5a12.21,12.21,0,0,1,3.11-4,.74.74,0,0,0,0-1.07c-.75-.77-1.15-1.41-.73-2.3.52-1.1,1.62-1.54,3.74-1.15,2.39.42,3.72,3.09,4.45,6a1.91,1.91,0,0,0,2.28,1.46h0c8.22-2,14.27-7.89,19.13-11.92l.44.37,1.32,1.09.62-.18c12.17-3.38,23.54-15.58,26.33-22.83a27.58,27.58,0,0,0,1.69-7.21c17-.5,16.73-1,24.32-2.31,5.89-1.05,13.78,2.43,17.65,6.34,2.8,2.82,2.69,8.19,5.75,10.17m28.59-19c-.3,4.38-2.41,7.32-7.1,8.65s-13.32,3.39-22.34,1.86c-.62-.1-1.36-2.13-1.6-2.82a.13.13,0,0,1,.15-.18c8.15,1.42,20.3.09,24-2.28,4.94-3.12,3.3-11.8-3.24-14.33-9.57-3.7-30,1.25-43.93,1.45-5.11.07-10.59,0-16.64-5.35-3.85-3.75-4.15-10.11-1.52-14.52v0c2.63-3.86,7.43-5.36,11.75-5,11.39.88,14.68-6.65,24.43-8.7,9.43-2,13.69.76,14.88,1.76a.14.14,0,0,1-.11.25,28,28,0,0,0-14.88,2.06,32.26,32.26,0,0,0-7.3,4.69.15.15,0,0,0,.06.25c4.9,1.24,5.46,2.29,10.86,2.73,12.84,1.05,15.86-4.51,22.49-3.13a12.6,12.6,0,0,1,8,5,.14.14,0,0,1-.15.21c-19.77-4.74-17.79,3.91-28.36,4.69-6.41.48-15.74-5-18.4-4.6a.14.14,0,0,0-.11.13c-.1,1-1,8.57-7.12,6.92a.14.14,0,0,1,0-.25c2.34-2.24,1.43-5.61-1.93-6.62a11.33,11.33,0,0,0-7,.4c-3.68,1.46-5.12,6.65-2.9,9.88,3.33,4.86,8.45,6,15.8,5.54,7.64-.5,12.62-1.08,23.26-2.54,3.14-.43,9.18-1.07,15-1.28-.36.62-.71,1.24-1,1.88a.49.49,0,0,0,0,.47.43.43,0,0,0,.62.17l0,0c.62-.39,1.22-.79,1.81-1.19l.87-.62a2.37,2.37,0,0,0,.78-.7l0-.06c1.17,0,2.3,0,3.37.05l-.13.18a15.93,15.93,0,0,0-1.29,2.28.53.53,0,0,0,.05.5.44.44,0,0,0,.64.09h0c.62-.5,1.26-1,1.92-1.4l1-.66a3.48,3.48,0,0,0,.9-.74,8.77,8.77,0,0,1,4.12,1.25l-4.16,3.49c-.43.33,4.87,4.07,4.45,10.19"/></g></g></svg>